<svg class="icon" width="32px" height="32.00px" viewBox="0 0 1024 1024" version="1.1" xmlns="http://www.w3.org/2000/svg"><path fill="#889aa4" d="M801.362457 458.025974c0-159.399599-129.216864-288.644463-288.630463-288.644463-159.399599 0-288.615463 129.244864-288.615464 288.644463 0 80.494293 33.01571 153.231653 86.191243 205.592193 13.728879-25.592775 32.200717-48.239576 54.224523-66.821412-34.066701-36.38968-55.123516-85.098252-55.123515-138.769781 0-112.087015 91.222198-203.338213 203.324213-203.338212 112.087015 0 203.366213 91.251198 203.366212 203.338212 0 53.326531-20.808817 101.759106-54.515521 138.052787 22.135805 18.498837 40.730642 41.089639 54.542521 66.640414 52.621538-52.29154 85.236251-124.669904 85.236251-204.694201"  /><path fill="#889aa4" d="M970.56497 458.591969C970.56497 205.328195 765.221774 0 511.972 0 258.792225 0 53.43503 205.328195 53.43503 458.591969c0 176.681447 100.030121 329.9561 246.460834 406.510428-9.829914-39.015657-16.411856-73.595353-16.411856-94.570169 0-3.980965 0.400996-7.838931 0.608995-11.751897-90.601204-68.935394-149.209689-177.828437-149.209688-300.188362 0-207.969172 169.161513-377.144685 377.088685-377.144685 207.969172 0 377.144685 169.175513 377.144685 377.144685 0 121.088936-57.433495 228.957988-146.430713 298.003381 0.275998 4.631959 0.704994 9.207919 0.704994 13.909878 0 20.682818-6.387944 54.59752-16.010859 92.910183 144.660729-77.134322 243.184863-229.454983 243.184863-404.823442"  /><path fill="#889aa4" d="M436.718662 1023.991h153.411651c33.638704-80.910289 71.978367-217.220091 71.978368-253.484772 0-79.512301-65.355426-145.960717-145.960717-145.960717-0.800993 0-1.436987-0.041-2.169981-0.041-0.179998 0-0.359997 0.013-0.565995 0.013h-0.303998c-0.718994 0-1.631986 0.042-2.378979 0.042-80.605292 0-145.946717 66.211418-145.946717 145.973717-0.001 36.348681 38.338663 172.602483 71.936368 253.457772M619.897052 458.800968c0-59.410478-48.197576-107.593054-107.593055-107.593055-59.422478 0-107.579054 48.183577-107.579054 107.593055 0 38.67066 20.47682 72.489363 51.100551 91.457196 16.424856 10.176911 35.739686 16.135858 56.478503 16.135858 21.029815 0 40.592643-6.124946 57.156498-16.562855 30.264734-19.052833 50.436557-52.664537 50.436557-91.030199"  /></svg>